# File created by Blade
# Date/Time:  Tue Jan 27 18:55:50 2015
# Frame Rate: 120.000 fps
#------------------------------------------------------
:FULLY-SPECIFIED
:DEGREES
2321
root 0.655077 31.613264 -5.266738 7.662098 -21.358415 -7.952715
Spine 7.622109 6.000406 1.746231
Head 2.871838 21.225246 8.286232
LeftShoulder -17.985854 17.016140 13.406687
LeftArm 2.968965 -39.503886 -79.352355
LeftForeArm 3.965845 -0.000000 103.683214
LeftHand -16.118852 -0.000000 32.241961
LeftHandThumb1 -26.253704 0.000000 33.147579
RightShoulder -4.086957 10.049964 -7.488853
RightArm 15.912567 -30.155490 85.864070
RightForeArm -32.985524 -0.000000 39.873830
RightHand -22.869023 -0.000000 4.756826
RightHandThumb1 -24.326973 -0.000000 -32.862282
LeftUpLeg -10.467408 17.410731 -7.755230
LeftLeg 15.251355 -0.000000 -0.000000
LeftFoot -35.945982 31.425980 -27.307485
LeftToeBase 9.946492 -0.000000 -0.000000
RightUpLeg -63.044966 -48.134847 13.451848
RightLeg 77.767836 -0.000000 -0.000000
RightFoot -26.372730 -18.789565 25.276661
RightToeBase 13.806993 -0.000000 -0.000000
2322
root 0.649546 31.618838 -5.259615 7.793811 -21.133958 -8.039063
Spine 7.540098 5.956204 1.813239
Head 2.575666 21.162089 8.081670
LeftShoulder -17.963182 17.033911 13.427284
LeftArm 2.972830 -39.755673 -79.363715
LeftForeArm 4.138590 0.000000 103.603935
LeftHand -16.259334 -0.000000 32.751574
LeftHandThumb1 -26.253704 0.000000 33.147579
RightShoulder -3.999261 10.110094 -7.532425
RightArm 16.028965 -30.483769 85.792098
RightForeArm -32.678484 -0.000000 39.779646
RightHand -22.724247 -0.000000 4.748830
RightHandThumb1 -24.326973 -0.000000 -32.862282
LeftUpLeg -10.583801 17.243611 -7.673134
LeftLeg 15.304132 -0.000000 -0.000000
LeftFoot -35.893152 31.417058 -27.249828
LeftToeBase 9.998551 -0.000000 -0.000000
RightUpLeg -62.736670 -48.634499 13.177330
RightLeg 77.908259 -0.000000 -0.000000
RightFoot -26.388242 -19.179124 24.980289
RightToeBase 14.382340 -0.000000 -0.000000
2323
root 0.636164 31.627635 -5.255135 7.928135 -20.949759 -8.187739
Spine 7.507653 5.937719 1.914899
Head 2.240281 21.119575 7.925456
LeftShoulder -17.971596 17.019392 13.441005
LeftArm 2.906772 -39.995893 -79.299402
LeftForeArm 4.127526 -0.000000 103.553150
LeftHand -16.363505 -0.000000 33.175354
LeftHandThumb1 -26.253704 0.000000 33.147579
RightShoulder -3.902230 10.141469 -7.540207
RightArm 16.224186 -30.786901 85.699657
RightForeArm -32.318240 -0.000000 39.696046
RightHand -22.757474 -0.000000 4.736974
RightHandThumb1 -24.326973 -0.000000 -32.862282
LeftUpLeg -10.679843 17.156210 -7.521536
LeftLeg 15.354777 -0.000000 -0.000000
LeftFoot -35.829728 31.417673 -27.157046
LeftToeBase 10.068967 -0.000000 -0.000000
RightUpLeg -62.361305 -49.080240 12.919841
RightLeg 78.045265 -0.000000 -0.000000
RightFoot -26.402751 -19.461220 24.782358
RightToeBase 14.417589 -0.000000 -0.000000
2324
root 0.621440 31.637290 -5.253758 8.052668 -20.790637 -8.323753
Spine 7.506127 5.988520 1.988594
Head 1.818597 21.011514 7.764840
LeftShoulder -17.956455 17.003725 13.466209
LeftArm 2.853991 -40.226047 -79.225777
LeftForeArm 4.156074 -0.000000 103.508864
LeftHand -16.424394 0.000000 33.373778
LeftHandThumb1 -26.253704 0.000000 33.147579
RightShoulder -3.843156 10.291266 -7.535592
RightArm 16.310390 -31.091401 85.654416
RightForeArm -32.051737 -0.000000 39.615446
RightHand -22.622487 -0.000000 4.807039
RightHandThumb1 -24.326973 -0.000000 -32.862282
LeftUpLeg -10.792899 17.114925 -7.381950
LeftLeg 15.420974 -0.000000 -0.000000
LeftFoot -35.710960 31.448898 -27.023353
LeftToeBase 9.824193 -0.000000 -0.000000
RightUpLeg -61.988748 -49.499964 12.656359
RightLeg 78.190255 -0.000000 -0.000000
RightFoot -26.501642 -19.744365 24.690066
RightToeBase 14.566623 -0.000000 -0.000000
2325
root 0.606653 31.645908 -5.252884 8.178197 -20.645965 -8.453691
Spine 7.496240 6.070551 2.049967
Head 1.457751 20.875925 7.633875
LeftShoulder -17.906969 17.049610 13.496759
LeftArm 2.816092 -40.482394 -79.167496
LeftForeArm 4.176822 -0.000000 103.480245
LeftHand -16.449293 -0.000000 33.402555
LeftHandThumb1 -26.253704 0.000000 33.147579
RightShoulder -3.769633 10.350076 -7.528669
RightArm 16.511919 -31.405964 85.542900
RightForeArm -31.822905 0.000000 39.539504
RightHand -22.521152 0.000000 4.727261
RightHandThumb1 -24.326973 -0.000000 -32.862282
LeftUpLeg -10.906096 17.066053 -7.249940
LeftLeg 15.488031 -0.000000 -0.000000
LeftFoot -35.656192 31.455092 -26.942595
LeftToeBase 9.805760 -0.000000 -0.000000
RightUpLeg -61.635993 -49.921094 12.387031
RightLeg 78.379264 -0.000000 -0.000000
RightFoot -26.597695 -20.028063 24.661095
RightToeBase 14.479556 -0.000000 -0.000000
2326
root 0.590217 31.652717 -5.248969 8.286158 -20.505444 -8.575776
Spine 7.500479 6.130498 2.096737
Head 1.132128 20.825956 7.525578
LeftShoulder -17.896886 17.118402 13.521688
LeftArm 2.792937 -40.728156 -79.104738
LeftForeArm 4.136098 0.000000 103.450411
LeftHand -16.636347 -0.000000 33.857098
LeftHandThumb1 -26.253704 0.000000 33.147579
RightShoulder -3.693896 10.398262 -7.526914
RightArm 16.778261 -31.764820 85.406950
RightForeArm -31.591177 0.000000 39.436884
RightHand -22.487260 0.000000 4.673351
RightHandThumb1 -24.326973 -0.000000 -32.862282
LeftUpLeg -10.994548 17.014341 -7.126568
LeftLeg 15.547545 -0.000000 -0.000000
LeftFoot -35.679268 31.454818 -26.951671
LeftToeBase 9.738413 -0.000000 -0.000000
RightUpLeg -61.277140 -50.369597 12.097133
RightLeg 78.602345 -0.000000 -0.000000
RightFoot -26.656174 -20.282593 24.692514
RightToeBase 14.252907 -0.000000 -0.000000
2327
root 0.576093 31.660785 -5.248393 8.445822 -20.386718 -8.727861
Spine 7.478469 6.182861 2.176886
Head 0.783665 20.819960 7.373694
LeftShoulder -17.932568 17.147987 13.509037
LeftArm 2.702369 -40.976062 -78.974852
LeftForeArm 3.969854 -0.000000 103.435310
LeftHand -16.690895 -0.000000 34.136563
LeftHandThumb1 -26.253704 0.000000 33.147579
RightShoulder -3.579562 10.532523 -7.505945
RightArm 16.915009 -32.016302 85.377160
RightForeArm -31.599784 0.000000 39.379422
RightHand -22.399785 0.000000 4.771037
RightHandThumb1 -24.326973 -0.000000 -32.862282
LeftUpLeg -11.123967 16.928170 -6.980180
LeftLeg 15.581649 -0.000000 -0.000000
LeftFoot -35.685908 31.523909 -26.921030
LeftToeBase 9.690858 -0.000000 -0.000000
RightUpLeg -60.988946 -50.809668 11.901315
RightLeg 78.801829 -0.000000 -0.000000
RightFoot -26.746897 -20.628754 24.566962
RightToeBase 14.464602 -0.000000 -0.000000
2328
root 0.559906 31.667706 -5.251664 8.597674 -20.380149 -8.830057
Spine 7.454964 6.404604 2.162054
Head 0.452452 20.727259 7.281900
LeftShoulder -17.909959 17.175365 13.543361
LeftArm 2.604751 -41.205539 -78.832044
LeftForeArm 3.786856 -0.000000 103.424361
LeftHand -16.726790 -0.000000 34.386090
LeftHandThumb1 -26.253704 0.000000 33.147579
RightShoulder -3.553339 10.600444 -7.493856
RightArm 17.272751 -32.582750 85.106263
RightForeArm -31.212210 -0.000000 39.301697
RightHand -22.306450 -0.000000 4.404689
RightHandThumb1 -24.326973 -0.000000 -32.862282
LeftUpLeg -11.263697 16.945120 -6.893336
LeftLeg 15.615330 -0.000000 -0.000000
LeftFoot -35.641685 31.581665 -26.841252
LeftToeBase 9.645945 -0.000000 -0.000000
RightUpLeg -60.693036 -51.086160 11.591815
RightLeg 79.085295 -0.000000 -0.000000
RightFoot -26.821590 -20.965092 24.487090
RightToeBase 14.540443 -0.000000 -0.000000
2329
root 0.545213 31.674465 -5.249209 8.750980 -20.305585 -8.992717
Spine 7.438537 6.532140 2.261078
Head 0.184635 20.685138 7.125633
LeftShoulder -17.915072 17.242366 13.506415
LeftArm 2.517947 -41.458216 -78.682365
LeftForeArm 3.571451 -0.000000 103.436211
LeftHand -16.871290 0.000000 34.491326
LeftHandThumb1 -26.253704 0.000000 33.147579
RightShoulder -3.436013 10.728293 -7.475705
RightArm 17.508408 -32.881252 84.970393
RightForeArm -31.112105 0.000000 39.198984
RightHand -22.207142 0.000000 4.644161
RightHandThumb1 -24.326973 -0.000000 -32.862282
LeftUpLeg -11.377215 16.860074 -6.734111
LeftLeg 15.673922 -0.000000 -0.000000
LeftFoot -35.668781 31.618036 -26.830141
LeftToeBase 9.595077 -0.000000 -0.000000
RightUpLeg -60.433885 -51.524192 11.398687
RightLeg 79.380884 -0.000000 -0.000000
RightFoot -26.943345 -21.188378 24.447905
RightToeBase 14.582681 -0.000000 -0.000000
2330
root 0.534581 31.682294 -5.250087 8.968097 -20.258314 -9.131460
Spine 7.346695 6.673117 2.313419
Head -0.052747 20.660072 7.027808
LeftShoulder -17.942050 17.271253 13.487114
LeftArm 2.357406 -41.707078 -78.530017
LeftForeArm 3.275531 -0.000000 103.453894
LeftHand -16.740975 -0.000000 34.816283
LeftHandThumb1 -26.253704 0.000000 33.147579
RightShoulder -3.363428 10.846943 -7.420789
RightArm 17.809980 -33.233461 84.797778
RightForeArm -30.953886 -0.000000 39.056935
RightHand -22.159977 -0.000000 4.387813
RightHandThumb1 -24.326973 -0.000000 -32.862282
LeftUpLeg -11.582807 16.789558 -6.635159
LeftLeg 15.745031 -0.000000 -0.000000
LeftFoot -35.739725 31.656932 -26.934557
LeftToeBase 9.513312 -0.000000 -0.000000
RightUpLeg -60.330286 -51.946180 11.296071
RightLeg 79.703199 -0.000000 -0.000000
RightFoot -26.969126 -21.511798 24.298529
RightToeBase 14.371119 -0.000000 -0.000000
2331
root 0.525134 31.689821 -5.251147 9.178793 -20.224080 -9.282401
Spine 7.277627 6.806852 2.410545
Head -0.274154 20.602200 6.814489
LeftShoulder -17.947211 17.375274 13.391438
LeftArm 2.239286 -42.005101 -78.343492
LeftForeArm 2.897607 -0.000000 103.473818
LeftHand -16.787157 -0.000000 34.711112
LeftHandThumb1 -26.253704 0.000000 33.147579
RightShoulder -3.234777 11.009708 -7.409463
RightArm 17.998245 -33.545652 84.680183
RightForeArm -30.921114 0.000000 39.007837
RightHand -22.088128 -0.000000 4.439130
RightHandThumb1 -24.326973 -0.000000 -32.862282
LeftUpLeg -11.782013 16.684310 -6.508349
LeftLeg 15.838254 -0.000000 -0.000000
LeftFoot -35.777065 31.716604 -26.953101
LeftToeBase 9.499130 -0.000000 -0.000000
RightUpLeg -60.223770 -52.355832 11.177912
RightLeg 80.065849 -0.000000 -0.000000
RightFoot -27.020253 -21.691717 24.273628
RightToeBase 14.197181 -0.000000 -0.000000
2332
root 0.514692 31.697844 -5.250627 9.374567 -20.240582 -9.466965
Spine 7.248636 6.960174 2.548991
Head -0.491429 20.616217 6.554283
LeftShoulder -17.995880 17.436213 13.279356
LeftArm 2.048694 -42.317455 -78.125837
LeftForeArm 2.743533 -0.000000 103.479749
LeftHand -16.859650 -0.000000 34.864611
LeftHandThumb1 -26.253704 0.000000 33.147579
RightShoulder -3.057972 11.266671 -7.400672
RightArm 18.137039 -33.902597 84.588939
RightForeArm -30.837345 -0.000000 38.913426
RightHand -22.113508 0.000000 4.264123
RightHandThumb1 -24.326973 -0.000000 -32.862282
LeftUpLeg -11.978229 16.675291 -6.360592
LeftLeg 15.987386 -0.000000 -0.000000
LeftFoot -35.864999 31.717663 -27.041067
LeftToeBase 9.486348 -0.000000 -0.000000
RightUpLeg -60.045547 -52.732548 11.027271
RightLeg 80.427202 -0.000000 -0.000000
RightFoot -27.111694 -21.712979 24.406909
RightToeBase 14.033401 -0.000000 -0.000000
2333
root 0.503758 31.704538 -5.248692 9.535305 -20.282551 -9.623899
Spine 7.240331 7.150530 2.642744
Head -0.638880 20.621593 6.379443
LeftShoulder -17.960229 17.479644 13.283209
LeftArm 1.814658 -42.694322 -78.043103
LeftForeArm 2.633240 -0.000000 103.502113
LeftHand -17.063850 -0.000000 34.814611
LeftHandThumb1 -26.253704 0.000000 33.147579
RightShoulder -2.939812 11.348806 -7.367467
RightArm 18.541707 -34.274135 84.362815
RightForeArm -30.720369 -0.000000 38.763075
RightHand -22.122535 0.000000 4.267004
RightHandThumb1 -24.326973 -0.000000 -32.862282
LeftUpLeg -12.145308 16.629793 -6.217449
LeftLeg 16.140249 -0.000000 -0.000000
LeftFoot -35.909248 31.789632 -27.046856
LeftToeBase 9.394921 -0.000000 -0.000000
RightUpLeg -59.851453 -53.111447 10.817104
RightLeg 80.825232 -0.000000 -0.000000
RightFoot -27.167182 -21.807601 24.374910
RightToeBase 13.955818 -0.000000 -0.000000
